<?xml version="1.0" encoding="utf-8" ?>
<svg xmlns="http://www.w3.org/2000/svg" xmlns:xlink="http://www.w3.org/1999/xlink" width="1024" height="1024">
	<path transform="scale(2 2)" d="M199.625 251.647L186.796 251.684C161.459 251.855 151.751 240.944 151.53 215.913L151.516 111.855C151.518 106.659 151.07 100.939 152.144 95.849C157.133 72.2086 180.814 74.1816 198.604 74.1955L387.499 74.1931L406.02 74.1099C427.015 74.0969 435.348 90.625 435.381 109.514L435.373 122.531L327.037 122.52C304.421 122.51 300.341 121.336 300.351 147.581L300.361 251.647L199.625 251.647Z"/>
	<path transform="scale(2 2)" d="M77.0514 337.686L77.0272 117.312C77.0072 106.775 76.9895 96.601 89.8968 95.0896C109.531 94.4417 105.482 117.889 105.479 130.584L105.474 321.172C98.3561 323.384 91.9707 326.315 85.751 330.449C82.5509 332.62 79.7111 334.868 77.0514 337.686Z"/>
	<path transform="scale(2 2)" d="M329.283 251.647L329.283 152.239L435.373 152.239L435.371 198.927C435.381 215.67 438.428 229.179 426.575 242.522L426.315 242.792C414.554 254.795 396.446 251.644 381.204 251.64L329.283 251.647Z"/>
	<path transform="scale(2 2)" d="M372.714 351.95L248.821 351.958C241.159 351.958 231.149 353.585 224.527 348.839C213.978 341.276 218.959 325.074 231.196 323.323C236.059 322.871 243.037 323.328 248.159 323.328L341.536 323.317C351.154 323.317 360.947 322.928 370.55 323.379C386.013 324.106 391.142 346.502 372.714 351.95Z"/>
	<path transform="scale(2 2)" d="M127.858 428.56C103.064 431.144 80.8591 413.167 78.2263 388.379C75.5936 363.59 93.5272 341.35 118.31 338.669C143.162 335.981 165.477 353.975 168.117 378.831C170.757 403.688 152.72 425.968 127.858 428.56Z"/>
	<path transform="scale(2 2)" d="M171.844 426.392C179.393 415.295 183.068 412.102 187.084 397.656L382.532 397.642C391.195 397.638 407.905 395.387 414.922 401.336C425.456 410.268 419.122 425.705 404.548 426.392L197.617 426.391C189.035 426.391 180.423 426.216 171.844 426.392Z"/>
</svg>
