<?xml version="1.0" encoding="utf-8" ?>
<svg xmlns="http://www.w3.org/2000/svg" xmlns:xlink="http://www.w3.org/1999/xlink" width="1024" height="1024">
	<path transform="scale(2 2)" d="M66.5361 254.006L66.525 139.11C66.5261 131.2 66.1507 123.043 67.7562 115.259C72.4128 92.6829 91.6721 77.669 114.544 77.1527L238.327 77.1527L238.327 254.006L161.915 254.006L161.915 304.787L191.958 304.765C196.492 304.762 202.21 304.233 206.642 305.054C217.773 307.118 218.169 323.503 206.878 325.592C202.149 326.466 196.265 325.899 191.397 325.889L161.915 325.874L161.915 404.243L436.504 404.243C448.404 404.382 448.949 424.264 435.534 424.749C428.988 424.985 422.374 424.798 415.823 424.794L167.438 424.8C147.206 424.798 141.208 426.619 141.26 405.83L141.282 325.874L111.097 325.883C106.352 325.887 100.94 326.383 96.2718 325.553C85.413 323.622 85.3795 307.384 96.2417 305.21C101.271 304.204 107.175 304.774 112.324 304.774L141.282 304.787L141.282 254.006L66.5361 254.006Z"/>
	<path transform="scale(2 2)" d="M399.875 98.2435L295.564 98.2535C291.085 98.2526 286.359 98.5524 281.918 98.0117C271.501 96.7432 271.01 79.6342 281.359 77.4754C285.311 76.651 289.996 77.1418 294.047 77.1412L318.564 77.1527L420.072 77.147C425.367 77.1496 430.879 76.9111 436.13 77.6411C447.159 79.1744 448.378 95.5453 437.101 97.8634C432.818 98.7439 427.906 98.2608 423.526 98.2606L399.875 98.2435Z"/>
	<path transform="scale(2 2)" d="M436.504 165.731C431.237 166.337 425.32 165.735 419.996 165.733L318.476 165.731C311.409 165.731 284.112 167.381 278.919 164.052C270.286 158.518 273.446 146.32 283.085 144.743C290.47 144.481 297.966 144.738 305.359 144.738L405.134 144.74C410.889 144.74 434.188 143.72 438.509 145.418C448.902 149.5 447.374 161.405 436.504 165.731Z"/>
	<path transform="scale(2 2)" d="M371.876 381.902C330.947 382.277 297.441 349.443 296.987 308.515C296.533 267.586 329.301 234.017 370.229 233.483C411.269 232.948 444.95 265.826 445.406 306.867C445.861 347.908 412.918 381.526 371.876 381.902Z"/>
</svg>
