<?xml version="1.0" encoding="utf-8" ?>
<svg xmlns="http://www.w3.org/2000/svg" xmlns:xlink="http://www.w3.org/1999/xlink" width="1024" height="1024">
	<path transform="scale(2 2)" d="M366.765 174.804L366.765 81.1914L451.183 81.1914C451.182 89.9217 451.442 174.225 451.183 174.804L366.765 174.804Z"/>
	<path transform="scale(2 2)" d="M353.062 420.334L122.271 420.335C113.733 420.341 101.578 420.967 93.3803 419.859C76.8162 417.62 62.7464 402.973 61.2937 386.26C60.7835 380.391 61.0497 374.368 61.0567 368.475L61.0547 152.16C61.0545 147.408 60.8325 142.407 61.432 137.689C63.7991 119.061 78.6664 106.38 97.1405 105.016L320.544 105.016L320.544 150.613C320.543 158.283 320.325 166.008 320.544 173.672C324.334 176.998 327.772 180.737 331.302 184.334L357.912 210.869C360.945 213.86 364.065 216.804 366.765 220.106C374.216 220.394 381.789 220.117 389.253 220.106L389.265 371.009C389.278 376.949 389.827 383.429 388.948 389.3C386.228 407.488 371.025 419.299 353.062 420.334ZM209.186 147.52C202.532 149.604 192.434 176.264 189.213 183.374L165.179 186.41C161.079 186.92 156.547 187.028 152.585 188.152C139.288 191.923 154.95 204.632 158.668 208.3L168.95 218.457C171.148 220.597 173.252 222.853 175.798 224.592C174.005 234.349 169.516 253.119 169.05 262.033C168.847 265.915 173.311 269.069 176.905 267.7C184.094 264.96 206.27 248.8 209.746 248.669C210.134 248.654 211.021 249.267 211.37 249.482C217.543 252.953 240.733 267.165 245.58 268.343C254.297 266.209 251.557 258.493 250.163 252.019L247.075 238.026C246.086 233.65 244.818 229.095 244.677 224.592C251.32 217.623 266.98 204.827 271.72 197.752C274.061 194.257 272.294 189.164 268.227 187.905C259.331 185.152 241.228 184.72 231.34 183.374C229.161 177.652 226.17 172.123 223.545 166.59C220.776 160.755 216.937 147.193 209.186 147.52ZM127.837 302.948C117.914 304.126 112.94 315.84 121.738 322.296C125.778 325.261 132.248 324.442 136.962 324.447L200.056 324.445C211.712 323.677 214.139 310.674 206.664 305.096C201.437 301.195 182.009 302.94 175.394 302.939L127.837 302.948ZM128.631 347.759C113.558 349.82 114.419 368.753 128.185 369.691C133.212 370.033 140.382 369.526 145.64 369.528L322.935 369.532C336.802 368.265 337.172 348.793 323.522 347.829C316.251 347.316 308.645 347.742 301.338 347.747L128.631 347.759Z"/>
</svg>
