<?xml version="1.0" encoding="utf-8" ?>
<svg xmlns="http://www.w3.org/2000/svg" xmlns:xlink="http://www.w3.org/1999/xlink" width="1024" height="1024">
	<path transform="scale(2 2)" d="M400.501 415.078C387.239 418.608 373.901 417.833 360.316 417.83L120.622 417.838C75.2516 417.822 75.1564 395.953 75.189 357.297L75.1657 124.158C75.0561 100.413 83.5003 84.6996 109.387 84.116L306.442 84.1067C328.912 84.1059 355.087 82.2568 360.102 112.128C361.258 119.015 360.811 126.418 360.811 133.393L360.804 282.591L418.682 282.573C425.264 282.527 434.021 281.14 436.427 289.217C437.707 293.512 437.023 317.711 437.026 323.894L437.038 352.17C437.039 358.845 437.311 365.74 436.464 372.371C433.963 391.954 419.279 409.108 400.501 415.078ZM145.436 107.988L118.727 107.973C100.623 107.958 99.0989 106.178 99.2319 126.936L99.2521 364.207C99.2522 370.667 99.1093 377.162 99.2579 383.618C99.5714 397.234 117.925 393.729 126.762 393.726L299.125 393.726L345.382 393.726C334.775 377.519 336.028 369.993 336.026 351.74L336.028 138.62C336.031 131.422 336.41 123.979 335.932 116.81C335.126 104.735 320.909 107.984 312.086 107.984L145.436 107.988ZM360.804 306.514L360.792 342.899C360.792 352.205 359.852 365.712 362.417 374.591C367.638 392.663 391.198 396.982 405.03 384.337C415.578 372.127 412.361 358.31 412.355 342.849C412.351 330.746 412.559 318.612 412.35 306.514L360.804 306.514Z"/>
	<path transform="scale(2 2)" d="M192.625 193.031L168.92 193.044C162.135 193.044 151.853 194.762 146.867 189.08C137.663 178.591 147.756 168.019 161.941 169.58C173.76 169.586 185.576 169.656 197.391 169.376C209.644 169.085 214.775 182.027 207.362 189.36C203.169 193.509 198.031 193.049 192.625 193.031Z"/>
	<path transform="scale(2 2)" d="M276.687 193.031L248.208 193.041C242.456 193.092 235.459 194.898 230.573 190.866C221.534 183.407 226.35 169.971 241.228 169.58C253.477 169.569 265.813 169.268 278.052 169.613C296.966 170.146 297.474 195.234 276.687 193.031Z"/>
	<path transform="scale(2 2)" d="M237.07 262.698L163.213 262.735C157.834 262.757 151.363 263.642 147.174 259.466C140.906 253.218 143.45 241.154 152.403 239.33C157.704 238.249 164.295 238.779 169.755 238.776L198.678 238.785L272.425 238.763C277.537 238.74 283.996 237.749 288.189 241.371C295.503 247.687 292.98 259.742 283.574 261.865C277.297 263.281 270.24 262.711 263.811 262.711L237.07 262.698Z"/>
</svg>
