<?xml version="1.0" encoding="utf-8" ?>
<svg xmlns="http://www.w3.org/2000/svg" xmlns:xlink="http://www.w3.org/1999/xlink" width="1464" height="1464">
	<path fill="#007DFE" transform="scale(1.4296 1.4296)" d="M507.291 350.707C518.836 348.941 533.758 351.671 545.371 353.158C543.076 361.574 539.112 373.855 541.451 382.538C542.604 386.816 546.033 390.005 549.783 392.121C555.508 395.35 563.367 397.66 569.808 395.678C579.819 392.597 585.451 377.731 589.675 369.275C606.578 376.109 621.851 386.817 635.839 398.399C629.379 404.371 621.454 413.626 618.519 422.061C617.077 426.204 617.636 429.617 619.597 433.493C622.862 439.949 629.053 446.583 636.048 448.839C646.975 452.363 658.427 439.009 667.509 434.417L668.11 434.12C678.618 446.538 687.868 466.595 691.947 482.057C684.304 486.192 674.202 488.942 667.923 495.027C664.045 498.784 662.747 503.625 662.834 508.906C662.933 514.901 664.249 521.924 668.813 526.164C675.435 532.316 694.06 530.135 702.894 529.966C702.9 534.681 702.833 539.356 702.572 544.066C669.685 543.279 636.674 544.168 603.767 543.858C607.254 519.923 603.486 500.397 589.361 480.37C573.653 458.099 552.427 447.227 526.095 442.736C522.228 442.374 518.385 442.098 514.498 442.209C490.344 442.899 466.759 452.792 450.262 470.599C437.485 484.391 429.075 501.937 427.742 520.778C427.193 528.524 427.708 536.269 427.995 544.014C416.464 543.673 404.885 543.965 393.348 543.979L329.158 544.019C330.008 539.52 330.72 535.025 331.789 530.569C339.458 530.759 348.671 531.879 355.985 529.368C360.62 527.778 363.93 524.511 365.907 520.062C368.368 514.521 369.721 505.542 367.442 499.865C363.895 491.029 346.718 485.44 338.356 481.653C344.736 464.999 352.876 447.065 363.279 432.511C370.733 437.99 379.415 445.846 388.526 448.293C392.341 449.317 396.024 447.952 399.256 445.926C405.1 442.263 411.283 435.634 412.588 428.706C414.515 418.472 400.843 405.281 395.336 397.396C405.986 386.444 429.358 374.394 443.361 367.638C447.202 375.751 449.693 387.078 456.866 393.009C460.244 395.802 464.804 396.327 469.028 395.919C475.463 395.297 482.416 392.836 486.477 387.575C493.041 379.072 489.404 362.15 488.34 352.098C494.643 351.931 501.004 351.215 507.291 350.707Z"/>
	<path fill="#007DFE" transform="scale(1.4296 1.4296)" d="M530.769 261.966C532.45 263.94 533.664 267.912 534.871 270.294C539.878 280.175 547.004 288.468 556.831 293.819C566.331 299.107 577.587 300.259 587.962 297.006C605.22 291.654 615.079 276.926 623.146 261.797C627.968 265.055 632.69 267.497 638.129 269.573C625.808 292.635 610.642 314.642 599.755 338.407C588.069 338.578 576.309 338.122 564.615 338.063L492.308 337.986L425.584 338.028C417.791 322.82 409.7 307.765 401.316 292.874C396.999 285.024 392.151 277.144 388.417 269.018C393.101 266.958 397.43 264.731 401.765 261.998C404.504 265.621 406.686 269.809 409.154 273.631C415.068 282.79 423.338 290.439 433.347 294.914C443.58 299.49 454.469 299.996 464.953 295.949C480.797 289.832 489.141 277.379 495.659 262.41C499.282 264.081 502.901 265.812 506.775 266.828C515.873 269.215 523.057 266.452 530.769 261.966Z"/>
	<path fill="#007DFE" transform="scale(1.4296 1.4296)" d="M279.991 598.141C286.825 597.455 293.661 598.069 299.625 601.78C306.462 606.034 310.91 613.466 312.661 621.21C314.675 630.117 313.488 640.141 308.392 647.858C303.72 654.934 297.229 658.377 289.125 659.998C281.552 660.799 274.258 659.976 267.702 655.768C260.937 651.425 256.706 644.351 255.163 636.568C253.376 627.563 254.861 617.567 260.107 609.923C265.001 602.791 271.794 599.618 279.991 598.141ZM288.889 653.509C294.851 651.869 299.524 648.792 302.562 643.282C306.136 636.798 306.704 628.349 304.645 621.296C302.863 615.192 298.875 609.668 293.181 606.681C288.987 604.482 285.159 604.367 280.577 604.544C274.414 606.146 269.626 608.553 266.23 614.236C262.317 620.783 261.385 629.845 263.302 637.189C264.797 642.913 268.257 648.207 273.415 651.245C278.149 654.034 283.563 654.51 288.889 653.509Z"/>
	<path fill="#007DFE" transform="scale(1.4296 1.4296)" d="M800.393 598.54C809.363 598.237 821.919 597.007 830.22 601.037C834.136 602.938 837.236 606.096 838.535 610.308C839.898 614.816 839.357 619.685 837.04 623.785C834.368 628.477 830.179 630.921 825.095 632.285C831.422 641.412 837.99 650.396 844.156 659.63L834.704 659.465C833.653 658.296 832.711 656.992 831.741 655.753C826.854 648.344 822.022 640.898 817.246 633.417L809.049 633.257C808.82 642.16 809.374 651.067 809.216 659.974C806.279 659.921 803.341 659.919 800.404 659.968C800.307 639.492 799.919 619.013 800.393 598.54ZM808.617 627.473C815.655 627.464 821.935 627.675 828.183 623.871C830.328 621.313 832.34 618.055 832.091 614.553C831.921 612.178 830.409 610.119 828.634 608.636C822.85 603.803 815.5 604.96 808.594 604.638C808.78 612.199 808.976 619.923 808.617 627.473Z"/>
	<path fill="#007DFE" transform="scale(1.4296 1.4296)" d="M575.357 598.217C582.851 598.026 590.895 597.341 598.269 598.768C603.37 599.755 608.435 602.023 611.299 606.561C613.751 610.447 614.19 615.572 613.002 619.955C611.242 626.455 606.842 629.878 601.315 633.089C606.176 642.425 612.56 650.973 618.622 659.554C616.186 659.51 613.707 659.77 611.276 659.581C609.222 659.421 608.634 658.721 607.385 657.249C602.169 650.097 596.588 642.065 592.899 634.008L583.383 634.046L583.486 659.909L575.492 659.969C575.047 639.398 575.968 618.782 575.357 598.217ZM583.02 628.454C589.441 628.493 596.693 629.124 602.08 624.95C604.278 621.962 606.381 618.187 605.897 614.32C605.535 611.417 603.717 609.055 601.345 607.439C595.966 603.774 589.194 604.304 583.007 604.387L583.02 628.454Z"/>
	<path fill="#007DFE" transform="scale(1.4296 1.4296)" d="M206.645 598.452C215.314 598.397 225.376 597.367 233.607 600.512C237.761 602.099 241.37 604.87 243.134 609.051C244.922 613.287 244.641 618.411 242.778 622.572C240.139 628.464 235.665 630.817 229.958 632.959C236.63 642.013 243.512 650.909 250.6 659.641C247.712 659.674 243.189 660.203 240.668 658.832C234.705 651.566 227.16 642.005 223.096 633.579L214.438 633.758C214.58 642.327 214.485 650.911 214.493 659.482L206.576 659.452C206.885 639.128 206.394 618.783 206.645 598.452ZM214.091 628.355C220.133 628.324 226.923 629.061 232.188 625.632C234.949 622.793 236.102 619.509 236.143 615.564C236.168 613.099 235.422 610.783 233.651 609.016C228.954 604.327 220.499 604.802 214.367 604.758C213.204 612.198 214.031 620.797 214.091 628.355Z"/>
	<path fill="#007DFE" transform="scale(1.4296 1.4296)" d="M676.134 598.286C686.437 597.904 700.772 596.403 709.337 603.26C713.032 606.218 715.167 610.506 715.529 615.206C715.934 620.478 714.222 626.021 710.72 630.009C706.076 635.298 700.236 636.351 693.621 636.928L683.937 636.971L683.983 659.386L676.077 659.479L675.961 619.728C675.955 612.672 675.519 605.301 676.134 598.286ZM684.027 630.377C690.327 630.369 696.932 630.909 702.578 627.614C705.424 624.752 708.068 621.051 707.936 616.82C707.842 613.767 706.298 611.013 704.067 608.987C699.115 604.489 692.717 604.512 686.459 604.683L684.489 604.894C683.07 607.556 683.993 625.986 684.027 630.377Z"/>
	<path fill="#007DFE" transform="scale(1.4296 1.4296)" d="M642.107 215.15C654.223 213.96 665.001 222.839 666.151 234.959C667.302 247.079 658.388 257.828 646.264 258.939C634.196 260.044 623.508 251.18 622.362 239.116C621.217 227.052 630.047 216.335 642.107 215.15Z"/>
	<path fill="#007DFE" transform="scale(1.4296 1.4296)" d="M378.187 215.209C390.008 213.294 401.149 221.309 403.091 233.125C405.033 244.942 397.044 256.101 385.232 258.07C373.382 260.047 362.178 252.026 360.229 240.17C358.28 228.315 366.327 217.13 378.187 215.209Z"/>
	<path fill="#007DFE" transform="scale(1.4296 1.4296)" d="M508.706 215.157C520.373 212.643 531.866 220.075 534.36 231.747C536.855 243.418 529.404 254.899 517.728 257.374C506.08 259.843 494.632 252.413 492.143 240.769C489.655 229.125 497.066 217.665 508.706 215.157Z"/>
	<path fill="#007DFE" transform="scale(1.4296 1.4296)" d="M737.289 598.06L745.463 598.019C753.865 618.228 761.145 638.943 768.445 659.571L760.322 659.531C758.277 654.178 756.194 648.84 754.071 643.517C750.599 643.686 747.101 643.675 743.624 643.741C738.659 644.065 733.136 644.204 728.192 643.663L722.181 659.697C719.365 659.503 716.497 659.548 713.673 659.502C716.273 651.525 719.556 643.793 722.598 635.978L737.289 598.06ZM729.784 638.385C734.042 637.924 738.328 638.023 742.605 638.031L753.037 638.123C750.969 632.924 743.694 608.749 741.262 606.34C737.463 616.999 733.935 627.868 729.784 638.385Z"/>
	<path fill="#007DFE" transform="scale(1.4296 1.4296)" d="M384.321 598.486C387.141 598.417 389.971 598.454 392.793 598.451C399.385 619.355 408.209 638.994 415.046 659.482L406.852 659.492C404.808 654.53 403.051 649.456 401.587 644.293C398.607 644.461 395.591 644.435 392.606 644.497L375.825 644.477C374.154 649.667 372.534 654.873 370.964 660.094L362.04 660.1C368.745 639.303 376.968 619.056 384.321 598.486ZM377.697 637.998L388.375 637.991L399.886 637.997C397.095 630.662 391.729 612.455 388.438 606.708C385.042 617.1 381.955 627.927 377.697 637.998Z"/>
	<path fill="#007DFE" transform="scale(1.4296 1.4296)" d="M664.609 598.458L664.458 605.005C655.155 604.908 645.845 604.996 636.541 605.011L636.508 624.658L661.488 624.632C661.424 626.761 661.383 628.891 661.368 631.021C653.604 630.953 644.63 630.025 636.983 631.292C636.124 632.644 636.356 633.793 636.324 635.375C636.273 641.189 636.19 647.003 636.075 652.817C645.571 652.653 655.097 652.805 664.597 652.797L664.527 659.49L628.61 659.611C629.228 652.626 628.899 645.271 628.921 638.251L628.944 598.456L664.609 598.458Z"/>
	<path fill="#007DFE" transform="scale(1.4296 1.4296)" d="M315.887 597.886C318.647 598.016 321.402 598.252 324.144 598.593C330.89 608.545 336.005 620.038 341.406 630.777C345.894 619.882 351.503 608.657 357.467 598.479L366.067 598.553C362.465 604.959 358.966 611.422 355.572 617.941C344.559 636.79 344.403 637.833 344.533 659.736L336.575 659.698C337.305 653 337.518 644.827 335.995 638.265C333.187 626.17 321.741 609.604 315.887 597.886Z"/>
	<path fill="#007DFE" transform="scale(1.4296 1.4296)" d="M524.605 631.506C527.377 624.557 536.539 601.078 542.897 598.646C544.08 598.194 545.383 598.117 546.54 598.68C547.013 598.911 547.091 598.911 547.18 599.407C547.845 603.1 540.401 614.803 538.449 618.229C529.107 634.747 528.43 640.696 528.493 659.491L520.523 659.474C520.662 653.406 521.09 646.97 520.076 640.963C518.24 630.087 506.19 610.469 501.475 598.474L509.111 598.353C515.026 608.848 519.248 620.675 524.605 631.506Z"/>
	<path fill="#007DFE" transform="scale(1.4296 1.4296)" d="M452.978 598.506L497.527 598.482L497.366 605.339C491.236 605.181 485.125 605.297 478.996 605.42L479.026 638.656L479.114 659.499L471.379 659.496C470.894 653.958 471.182 648.219 471.178 642.658C471.167 630.133 471.396 617.56 471.04 605.04L453.014 604.993L452.978 598.506Z"/>
	<path fill="#007DFE" transform="scale(1.4296 1.4296)" d="M423.512 598.464L431.015 598.514L431.025 653.19C439.489 652.912 448.027 653.165 456.499 653.191L456.423 659.563C445.541 659.977 434.51 659.631 423.618 659.505C423.318 639.171 423.532 618.802 423.512 598.464Z"/>
	<path fill="#007DFE" transform="scale(1.4296 1.4296)" d="M776.98 598.454L785.344 598.5C784.84 605.996 785.16 613.63 785.231 621.143C785.42 634.039 785.486 646.936 785.431 659.834C782.819 660.251 779.719 659.988 777.05 660.004C776.661 639.515 776.991 618.952 776.98 598.454Z"/>
</svg>
