<?xml version="1.0" encoding="utf-8" ?>
<svg xmlns="http://www.w3.org/2000/svg" xmlns:xlink="http://www.w3.org/1999/xlink" width="1464" height="1464">
	<path transform="scale(1.4296 1.4296)" d="M490.64 357.016L541.431 357.046C540.326 365.85 540.841 374.314 546.055 381.883C550.271 388.086 556.863 392.272 564.27 393.449C571.677 394.574 579.23 392.771 585.33 388.421C593.228 382.672 596.185 373.947 597.733 364.726C611.343 371.199 625.349 379.201 636.334 389.696C635.584 390.36 634.838 391.028 634.095 391.7C627.221 397.933 623.121 405.482 622.728 414.858C622.306 423.015 625.268 430.984 630.915 436.884C635.997 442.128 643.327 445.34 650.641 445.26C661.127 445.146 668.382 439.431 675.444 432.361C684.073 443.532 690.148 458.223 695.572 471.171C686.362 473.191 678.046 475.596 671.989 483.386C667.486 489.176 665.528 496.099 666.399 503.406C667.243 510.963 671.145 517.846 677.197 522.451C686.256 529.256 697.884 528.363 708.499 526.898C708.477 533.277 708.814 539.688 708.905 546.072L641.832 546.051C629.157 546.049 616.201 545.504 603.566 546.409C606.713 525.743 604.577 505.122 594.349 486.618C582.629 465.415 562.828 451.448 539.871 444.762C529.651 442.43 519.767 441.389 509.286 442.314C485.824 444.365 464.137 455.646 448.989 473.68C430.436 496.175 426.944 517.949 429.505 546.104L326.034 545.994C325.968 540.094 325.994 534.193 326.111 528.294C336.007 529.434 346.904 530.553 355.594 524.71C361.802 520.479 365.985 513.869 367.149 506.447C368.439 498.665 366.583 490.69 361.99 484.277C355.738 475.498 347.425 472.877 337.231 471.246C340.889 459.593 349.648 442.334 357.096 432.773C358.654 434.428 360.213 436.1 361.88 437.647C367.773 443.121 375.879 446.479 383.978 446.004C391.385 445.569 398.666 442.23 403.588 436.638C408.614 430.928 410.717 423.423 410.27 415.92C409.577 404.304 403.401 396.968 395.012 389.634C407.417 380.127 420.044 372.335 434.106 365.51C435.921 373.877 438.732 381.65 445.228 387.53C450.747 392.527 458.556 395.305 465.996 394.783C473.261 394.303 480.005 390.846 484.638 385.23C491.495 376.774 491.565 367.302 490.64 357.016Z"/>
	<path fill="#0440A0" transform="scale(1.4296 1.4296)" d="M380.613 212.601C387.044 212.006 393.451 213.158 398.764 217.033C403.978 220.837 407.402 226.782 408.388 233.133C409.649 241.259 406.529 247.62 401.884 253.955C411.853 268.82 423.452 291.058 441.426 296.909C452.249 300.433 463.999 298.672 474.007 293.548C486.062 287.291 495.117 276.477 499.157 263.51C498.666 263.06 498.186 262.599 497.718 262.125C492.192 256.503 488.313 249.121 488.575 241.068C488.797 234.226 492.03 227.04 497.055 222.406C502.259 217.608 509.283 215.411 516.301 215.797C523.283 216.181 529.706 219.43 534.399 224.579C538.903 229.521 541.371 235.953 540.951 242.666C540.371 251.953 535.029 258.04 528.517 263.969C532.386 273.315 537.17 282.051 545.203 288.47C554.577 295.961 567.523 300.2 579.521 298.837C603.892 296.07 614.293 271.453 627.825 254.323C624.433 250.872 621.542 246.923 620.175 242.219C618.282 235.705 619.861 229.8 622.923 224.005C625.498 219.363 630.835 215.477 635.757 213.785C642.163 211.582 650.03 212.336 656.045 215.434C661.375 218.179 665.231 223.095 666.983 228.796C669.005 235.375 668.02 242.486 664.652 248.451C661.547 253.951 656.328 258.59 650.144 260.221C644.404 261.735 638.806 260.736 633.729 257.791C629.093 267.586 625.861 278.359 622.247 288.587L605.142 336.498C598.488 335.96 591.569 336.365 584.874 336.37L546.427 336.386L423.173 336.48C413.594 310.546 405.578 283.984 394.954 258.435C393.087 259.238 391.208 260.066 389.232 260.564C382.916 262.171 376.218 261.167 370.651 257.777C365.112 254.364 361.235 248.807 359.945 242.429C358.556 235.805 359.783 228.523 363.599 222.895C367.745 216.782 373.631 214.085 380.613 212.601Z"/>
	<path fill="#0440A0" transform="scale(1.4296 1.4296)" d="M281.741 596.615C287.776 596.32 293.439 596.896 298.819 599.933C305.412 603.655 309.903 610.399 311.757 617.644C314.166 627.056 313.162 638.02 308.049 646.41C303.367 654.092 296.928 657.447 288.486 659.493C281.501 659.73 275.026 659.535 268.874 655.713C262.512 651.761 258.769 645.243 257.072 638.113C254.838 628.727 255.731 617.499 261.028 609.237C266.001 601.478 273.09 598.428 281.741 596.615ZM287.441 652.23C293.506 650.252 297.726 647.282 300.638 641.383C304.245 634.077 304.833 624.508 302.029 616.859C300.182 611.82 296.639 607.412 291.691 605.167C288.334 603.643 285.209 603.392 281.569 603.612C275.484 605.501 271.054 608.271 268.025 614.137C264.288 621.373 263.942 631.141 266.576 638.795C268.291 643.781 271.551 648.326 276.362 650.701C279.913 652.454 283.552 652.791 287.441 652.23Z"/>
	<path fill="#0440A0" transform="scale(1.4296 1.4296)" d="M817.06 597.215C820.555 597.412 824.245 597.713 827.549 598.924C832.15 600.61 836.099 603.77 838.098 608.324C839.856 612.365 839.91 616.944 838.248 621.026C836.076 626.337 831.545 629.693 826.346 631.73C834.641 639.544 839.463 648.898 844.407 659.007L834.022 658.947L827.324 647.3C824.263 642.305 821.108 638.168 817.012 633.968L808.48 633.911L808.358 658.944C805.435 658.811 802.558 658.79 799.633 658.881C800.928 638.611 800.052 617.856 800.008 597.532L817.06 597.215ZM808.523 626.96C815.007 626.885 821.199 627.092 826.677 623.046C828.853 620.341 831.057 617.472 830.629 613.764C830.361 611.44 828.872 609.548 827.035 608.201C821.59 604.207 814.969 604.375 808.574 604.671C808.563 612.096 808.655 619.537 808.523 626.96Z"/>
	<path fill="#0440A0" transform="scale(1.4296 1.4296)" d="M215.275 597.205C220.881 596.728 226.738 596.684 232.231 598.03C237.516 599.325 242.584 602.088 245.357 606.944C247.282 610.263 247.754 614.228 246.663 617.906C244.82 624.291 239.974 627.564 234.501 630.592C243.544 636.847 246.388 649.124 249.646 658.98L240.117 658.957L237.663 650.524C236.204 646.111 234.668 640.704 231.313 637.363C227.164 633.231 221.35 633.5 215.937 633.415C215.825 641.92 215.943 650.438 215.964 658.945C212.858 658.794 209.802 658.848 206.696 658.952C207.554 638.821 206.455 618.612 207.078 598.467C209.766 597.797 212.529 597.533 215.275 597.205ZM215.423 626.953C221.749 626.803 228.096 627.19 233.764 623.908C236.374 621.369 237.906 618.725 238.047 615.012C238.147 612.372 237.543 609.751 235.655 607.807C231.71 603.746 224.59 603.938 219.327 604.047C218.048 604.075 216.769 604.116 215.491 604.17C215.195 611.778 215.317 619.343 215.423 626.953Z"/>
	<path fill="#0440A0" transform="scale(1.4296 1.4296)" d="M578.353 597.199C584.279 596.273 592.057 596.506 597.887 597.847C603.014 599.026 607.616 601.727 610.359 606.327C612.366 609.693 613.063 613.635 612.064 617.445C610.288 624.224 604.911 627.233 599.263 630.446C608.274 636.346 612.369 649.653 616.662 659.152L606.564 659.028L603.74 653.128C601.096 646.534 597.52 636.91 590.519 634.032C587.939 632.971 585.369 632.742 582.807 633.878C580.689 637.203 582.038 654.452 582.112 658.995L573.046 658.971C573.184 650.567 571.916 602.462 573.603 598.185C574.928 597.179 576.751 597.313 578.353 597.199ZM581.792 626.126C586.988 626.15 592.644 626.691 597.441 624.359C600.228 622.285 602.686 619.619 603.158 616.018C603.491 613.48 602.511 610.845 600.917 608.89C598.535 605.969 594.616 604.249 590.898 604.023C588.781 603.894 586.682 604.043 584.576 604.248C583.825 604.396 582.722 604.309 582.34 605.042C580.152 609.254 581.972 620.992 581.792 626.126Z"/>
	<path fill="#0440A0" transform="scale(1.4296 1.4296)" d="M734.821 597.005L745.887 596.991C752.183 618.069 761.954 638.066 768.075 659.185C765.002 658.885 761.801 659.009 758.708 658.985C756.885 654.205 755.197 649.376 753.645 644.502C751.641 644.353 749.632 644.3 747.625 644.226C740.513 644.212 733.402 644.313 726.294 644.528L721.207 658.576C718.263 658.547 715.436 658.591 712.505 658.923C718.867 637.922 727.244 617.585 734.821 597.005ZM728.873 637.06L741.783 637.043L751.778 637.107C749.083 630.803 746.842 624.296 744.621 617.812C743.15 613.515 741.885 608.016 739.444 604.218L728.873 637.06Z"/>
	<path fill="#0440A0" transform="scale(1.4296 1.4296)" d="M681.154 597.207C682.123 597.042 681.683 597.086 682.733 597.043C691.369 596.691 701.31 596.315 708.005 602.816C711.61 606.316 713.491 611.113 713.535 616.109C713.582 621.434 711.66 626.723 707.898 630.536C701.21 637.315 692.353 636.924 683.603 637.004C681.554 639.279 682.84 655.642 683.001 659.323C680.025 659.168 677.006 659.249 674.024 659.241C673.642 638.741 674.035 618.206 673.974 597.701L681.154 597.207ZM682.994 629.756C688.746 629.686 694.107 629.936 699.408 627.257C702.466 624.517 704.568 620.828 704.7 616.641C704.799 613.519 703.729 610.459 701.57 608.182C698.86 605.324 694.9 603.973 691.022 603.941C689.774 603.93 688.497 604.067 687.255 604.177C685.783 604.262 684.479 604.126 683.206 604.93C681.805 612.679 682.858 621.827 682.994 629.756Z"/>
	<path fill="#0440A0" transform="scale(1.4296 1.4296)" d="M384.138 597.339L393.586 597.444C397.539 607.137 400.735 617.16 404.188 627.039C407.992 637.589 411.705 648.171 415.325 658.786C412.229 658.76 409.133 658.877 406.038 658.964C404.165 654.061 402.633 648.95 400.945 643.975L394.75 643.991L376.252 644.01L371.44 658.989L363.098 658.843C364.928 650.252 368.485 641.613 371.333 633.307C375.442 621.328 379.309 609.046 384.138 597.339ZM388.264 637.519L399.356 637.563C395.88 626.823 393.019 615.757 388.626 605.349C384.799 615.957 382.026 626.92 378.118 637.508L388.264 637.519Z"/>
	<path fill="#0440A0" transform="scale(1.4296 1.4296)" d="M626.568 597.193C638.239 597.057 649.91 597.03 661.581 597.111L661.467 604.663C652.819 604.58 644.181 605.11 635.53 604.805C635.234 610.596 635.377 616.421 635.252 622.22C642.893 621.889 650.599 622.087 658.249 622.098L658.073 629.467L635.481 629.483L635.471 635.375L635.452 651.56C644.344 651.476 653.236 651.464 662.128 651.526L662.05 659.047C650.177 658.721 638.222 658.989 626.339 658.984C627.272 638.77 626.324 617.563 626.568 597.193Z"/>
	<path fill="#0440A0" transform="scale(1.4296 1.4296)" d="M540.315 596.996L550.402 597.016C546.973 604.366 542.968 611.465 538.947 618.503C529.59 635.865 529.731 639.772 530.074 659.316C527.058 659.091 523.981 659.145 520.956 659.088C521.035 633.7 519.798 633.147 508.055 610.299C505.981 606.262 503.228 601.748 502.598 597.202L511.226 597.075C516.894 607.11 521.284 618.109 525.734 628.723C529.473 617.804 535.234 607.349 540.315 596.996Z"/>
	<path fill="#0440A0" transform="scale(1.4296 1.4296)" d="M316.089 597.264C319.133 597.119 322.195 597.12 325.243 597.066C331.953 606.35 336.249 618.046 341.307 628.315C345.634 617.853 350.666 606.674 356.859 597.19L365.757 597.524C362.619 604.686 358.71 611.508 354.814 618.277C344.595 636.545 344.647 638.206 345.328 658.997L336.482 658.971C336.614 652.4 337.168 645.294 336.28 638.8C334.591 626.437 321.796 609.708 316.089 597.264Z"/>
	<path fill="#0440A0" transform="scale(1.4296 1.4296)" d="M454.618 597.13C469.607 597.183 484.596 597.124 499.585 596.954L499.529 605.012C493.557 604.686 487.516 604.871 481.534 604.9C480.852 617.354 481.341 630.057 481.382 642.54L481.432 659.471L472.165 659.349C472.021 641.163 471.941 622.901 472.275 604.718C466.165 605.091 459.958 604.952 453.834 604.999C453.795 602.372 453.587 599.588 454.618 597.13Z"/>
	<path fill="#0440A0" transform="scale(1.4296 1.4296)" d="M423.563 597.087C426.537 597.121 429.518 597.065 432.493 597.052L432.479 651.608C441.623 651.482 450.768 651.47 459.912 651.572L459.798 659.022C447.96 658.879 435.741 658.324 423.944 659.169C423.79 638.504 424.23 617.733 423.563 597.087Z"/>
	<path fill="#0440A0" transform="scale(1.4296 1.4296)" d="M776.52 597.021L786.035 597.038C785.8 617.658 785.996 638.298 786.004 658.92L777.118 658.975C777.007 638.381 777.423 617.586 776.52 597.021Z"/>
</svg>
