<?xml version="1.0" encoding="utf-8" ?>
<svg xmlns="http://www.w3.org/2000/svg" xmlns:xlink="http://www.w3.org/1999/xlink" width="1464" height="1464">
	<path transform="scale(1.4296 1.4296)" d="M490.557 357.088C507.393 356.484 524.49 356.931 541.342 357.062C540.351 364.883 540.978 373.198 544.996 380.138C548.689 386.576 554.861 391.217 562.071 392.978C569.439 394.703 577.192 393.415 583.606 389.399C592.758 383.569 595.5 374.891 597.823 364.929C611.862 371.269 624.672 379.324 636.163 389.61C629.194 396.366 623.936 403.063 622.909 413.053C622.084 421.072 624.339 429.253 629.58 435.44C634.455 441.202 641.487 444.702 649.022 445.118C660.061 445.735 667.862 439.433 675.475 432.413C684.133 444.38 689.738 457.593 695.564 471.044C686.974 473.204 678.348 475.591 672.449 482.709C667.75 488.456 665.572 495.856 666.407 503.231C667.234 510.59 670.938 517.637 676.813 522.207C685.925 529.295 697.747 528.294 708.488 526.858C708.446 533.265 708.765 539.703 708.957 546.107C673.879 546.556 638.547 544.807 603.512 546.296C607.369 527.556 604.045 504.873 595.033 488.035C583.254 466.027 563.478 451.954 539.871 444.873C529.124 442.621 518.538 441.484 507.577 442.722C483.603 445.429 462.089 456.962 447.089 475.964C431.074 496.252 426.531 520.786 429.493 546.089C395.026 546.444 360.499 546.175 326.03 546.01C325.979 540.131 326.016 534.253 326.141 528.376C336.677 529.25 347.457 530.573 356.578 523.949C362.374 519.741 365.987 513.417 367.114 506.389C368.396 498.464 366.411 490.358 361.613 483.922C355.515 475.774 346.831 472.718 337.144 471.353C341.65 457.751 348.452 444.255 357.084 432.814C357.211 432.952 357.337 433.092 357.467 433.229C364.339 440.488 372.072 445.912 382.482 445.949C390.015 445.961 397.237 442.946 402.526 437.581C407.901 432.079 410.478 424.55 410.243 416.934C409.881 405.156 403.358 397.353 395.184 389.657C406.334 379.745 420.71 372.056 434.071 365.576C436.19 374.631 439.41 383.09 447.026 388.937C453.055 393.589 460.722 395.58 468.253 394.449C475.27 393.395 481.555 389.526 485.657 383.736C491.011 376.186 491.923 366.021 490.557 357.088Z"/>
	<path fill="#0341A1" transform="scale(1.4296 1.4296)" d="M380.035 212.608C386.128 211.923 392.57 212.99 397.807 216.275C403.29 219.714 406.933 225.392 408.213 231.699C409.965 240.331 406.666 247.159 402.024 254.117C412.712 268.958 421.758 289.1 439.867 296.186C449.74 300.049 461.301 299.04 470.877 294.776C484.677 288.632 493.7 277.603 499.022 263.729C493.121 257.914 488.64 250.691 488.391 242.169C488.199 235.562 491.327 228.133 495.864 223.365C500.706 218.276 507.579 215.638 514.55 215.611C521.896 215.639 528.916 218.654 533.994 223.963C538.743 228.883 541.361 235.362 541.056 242.222C540.646 251.423 535.077 258.249 528.613 264.173C533.041 273.39 537.457 282.035 545.586 288.538C554.859 295.956 567.694 300.142 579.571 298.707C603.365 295.831 614.506 271.368 627.602 254.438C624.42 250.799 621.54 247.086 620.148 242.368C618.176 235.682 619.859 229.518 623.042 223.569C625.584 219.003 630.501 215.528 635.358 213.809C641.72 211.558 649.469 212.132 655.536 215.055C660.782 217.594 664.794 222.128 666.676 227.644C668.944 234.147 668.304 241.523 665.193 247.644C662.313 253.311 657.66 258.001 651.507 259.956C645.407 261.893 639.29 260.791 633.746 257.845C629.45 267.873 626.1 278.185 622.473 288.461C616.814 304.552 611.065 320.612 605.224 336.638C593.445 335.884 581.338 336.475 569.52 336.485L502.256 336.526L450.259 336.532C441.406 336.534 431.924 335.904 423.143 336.871C413.673 310.872 405.567 284.298 394.886 258.757C393.773 259.212 392.652 259.678 391.506 260.043C384.991 262.118 377.949 261.864 371.868 258.578C366.221 255.499 362.052 250.275 360.303 244.085C358.426 237.565 359.181 230.104 362.61 224.218C366.564 217.432 372.739 214.456 380.035 212.608Z"/>
	<path fill="#0341A1" transform="scale(1.4296 1.4296)" d="M281.744 596.579C287.904 596.135 294.152 597.088 299.518 600.301C305.855 604.095 310.073 610.446 311.877 617.532C314.306 627.078 313.287 638.156 308.07 646.634C303.465 654.115 296.691 657.535 288.499 659.508C281.67 659.826 275.052 659.515 269.034 655.845C262.557 651.895 258.585 645.216 256.901 637.959C254.731 628.607 255.676 617.4 260.988 609.209C265.98 601.513 273.147 598.336 281.744 596.579ZM285.123 652.377C290.534 651.516 295.13 648.904 298.433 644.483C303.039 638.318 304.442 629.48 303.195 621.991C302.216 616.111 299.311 610.344 294.294 606.915C290.938 604.621 287.159 603.657 283.114 603.673C277.729 604.46 273.217 607.106 269.966 611.504C265.449 617.612 264.209 626.395 265.458 633.782C266.472 639.781 269.277 645.732 274.389 649.279C277.685 651.565 281.187 652.299 285.123 652.377Z"/>
	<path fill="#0341A1" transform="scale(1.4296 1.4296)" d="M582.901 596.714C587.228 596.399 591.744 596.468 596.006 597.345C601.71 598.518 607.254 601.199 610.426 606.291C612.529 609.604 613.165 613.64 612.184 617.44C610.46 624.04 605.07 627.256 599.566 630.394C608.662 638.772 612.184 648.022 616.92 659.242C613.38 659.347 609.982 659.27 606.454 658.943C604.984 656.148 603.765 653.221 602.488 650.333C601.931 649.058 601.358 647.79 600.77 646.529C598.445 641.553 594.909 635.492 589.377 633.723C587.35 633.074 584.888 633.142 583.024 634.189C580.598 638.787 581.692 653.544 582.561 659.023L572.98 659.159C573.075 645.932 572.498 632.682 572.485 619.444C572.479 612.239 572.165 604.75 573.687 597.674C576.73 597.136 579.823 596.962 582.901 596.714ZM582.008 626.064C587.389 626.046 592.256 626.204 597.388 624.223C600.131 621.774 602.701 619.33 602.977 615.405C603.164 612.751 602.032 610.27 600.192 608.402C596.795 604.955 592.179 604 587.522 604.107C587.104 604.117 586.687 604.13 586.27 604.146C584.77 604.347 583.393 604.115 582.499 605.513C579.658 609.951 581.938 620.925 582.008 626.064Z"/>
	<path fill="#0341A1" transform="scale(1.4296 1.4296)" d="M214.845 597.195C220.027 596.115 226.943 596.638 232.06 597.922C237.493 599.285 242.742 602.222 245.564 607.234C247.493 610.659 247.973 614.55 246.809 618.317C244.994 624.196 239.86 627.834 234.637 630.49C244.009 638.998 245.885 647.533 250.033 658.995L240.022 659.165L237.438 650.104C236.046 645.875 234.381 640.83 231.179 637.615C227.081 633.501 221.411 633.609 216.02 633.45L216.079 659.014L206.5 659.063C206.468 651.865 206.928 644.652 206.959 637.447C207.016 624.361 206.711 611.327 206.97 598.232L214.845 597.195ZM215.518 626.933C221.854 626.691 228.187 626.915 233.831 623.559C236.12 620.977 238.651 617.155 238.298 613.502C238.047 610.897 236.449 608.748 234.366 607.261C229.016 603.441 221.806 604.033 215.565 604.135L215.518 626.933Z"/>
	<path fill="#0341A1" transform="scale(1.4296 1.4296)" d="M800.194 597.233C809.032 598.286 817.899 595.903 826.69 598.696C831.369 600.183 835.633 602.926 837.837 607.447C839.703 611.277 840.126 616.444 838.681 620.471C836.627 626.199 831.753 629.388 826.48 631.779C834.712 639.636 839.586 649.074 844.794 659.034C841.918 659.109 835.906 659.934 833.573 658.334C828.082 649.804 823.919 641.554 816.878 634.03L808.656 633.969L808.563 658.981L799.456 659.039C799.707 646.853 800.119 634.78 800.079 622.576C800.051 614.421 799.201 605.279 800.194 597.233ZM808.79 627.027C814.898 626.676 820.65 626.657 826.019 623.268C828.07 621.129 830.877 617.765 830.717 614.576C830.599 612.247 829.46 610.467 827.696 608.995C822.471 604.637 815.096 604.533 808.649 604.654C809.401 612.047 808.513 619.608 808.79 627.027Z"/>
	<path fill="#0341A1" transform="scale(1.4296 1.4296)" d="M734.712 596.994L745.977 596.969C752.968 617.949 762.061 638.244 768.26 659.461C765.035 659.289 761.809 659.146 758.581 659.03L753.551 644.521L746.913 644.399L726.33 644.554C724.843 649.367 723.005 654.082 721.267 658.809L712.475 659.016C714.637 650.05 718.204 641.032 721.383 632.369C725.733 620.542 730.176 608.75 734.712 596.994ZM729.157 636.984L740.375 636.981L751.59 637.022C748.431 628.866 743.365 611.12 739.449 604.735L729.157 636.984Z"/>
	<path fill="#0341A1" transform="scale(1.4296 1.4296)" d="M678.27 597.289C679.201 597.215 680.132 597.152 681.065 597.098C690.166 596.518 700.687 596.07 707.89 602.727C711.481 606.048 713.579 610.677 713.709 615.566C713.931 621.265 711.77 626.799 707.746 630.839C701.498 637.001 692.613 636.974 684.455 637.085C683.658 637.176 684.107 637.033 683.246 637.819C682.007 644.83 682.801 652.401 683.061 659.48C680.053 659.436 677.033 659.505 674.024 659.519C673.479 638.827 673.918 618.207 673.975 597.518L678.27 597.289ZM698.399 627.645C701.711 624.841 704.168 621.681 704.496 617.193C704.736 614.096 703.729 611.031 701.699 608.68C699.246 605.821 695.474 604.268 691.753 604.111C690.562 604.06 689.262 604.084 688.076 604.224C686.546 604.384 684.65 604.291 683.412 605.189C681.589 612.549 682.849 622.009 683.046 629.633C688.53 629.54 693.175 629.451 698.399 627.645Z"/>
	<path fill="#0341A1" transform="scale(1.4296 1.4296)" d="M384.245 597.109C387.364 597.171 390.482 597.25 393.599 597.346C397.188 605.137 399.731 613.615 402.539 621.718L415.583 658.982L405.841 659.073C404.207 654.03 402.544 648.997 400.852 643.973L395.125 644.042L376.378 643.996L371.581 659.062L362.807 658.987C365.815 648.053 369.713 637.378 373.384 626.654C376.762 616.785 379.875 606.588 384.245 597.109ZM378.204 637.421L388.905 637.411L399.252 637.458C395.961 626.881 392.968 616.039 388.611 605.84C385.112 616.291 382.347 627.222 378.204 637.421Z"/>
	<path fill="#0341A1" transform="scale(1.4296 1.4296)" d="M626.05 597.046L662.038 597.04C661.839 599.629 661.78 602.134 661.824 604.728C653.101 604.865 644.378 604.954 635.654 604.994L635.498 622.121C643.172 621.968 650.847 621.941 658.522 622.04L658.449 629.585L635.572 629.572L635.649 635.375L635.635 651.431L662.435 651.346L662.437 659.027C650.34 658.977 638.243 659.006 626.146 659.112C626.539 645.855 626.655 632.591 626.494 619.329C626.46 612.01 626.865 604.311 626.05 597.046Z"/>
	<path fill="#0341A1" transform="scale(1.4296 1.4296)" d="M540.276 596.966L550.514 596.951C547.29 603.791 543.749 610.477 539.901 616.987C531.008 633.381 530.072 641.195 530.056 659.513C527.054 659.382 524.063 659.443 521.059 659.498C520.317 638.242 520.166 633.986 510.202 614.919C507.144 609.069 504.124 603.505 502.454 597.071L511.243 597.041C517.231 606.645 521.645 617.926 525.624 628.503C530.064 617.684 534.993 607.39 540.276 596.966Z"/>
	<path fill="#0341A1" transform="scale(1.4296 1.4296)" d="M316.039 597.149C319.121 597.084 322.204 597.051 325.287 597.048C332.556 606.041 336.032 617.76 341.509 627.84C345.766 617.032 350.789 607.036 356.749 597.069C359.835 597.033 362.889 597.315 365.962 597.568C362.542 604.372 359.105 611.07 355.33 617.689C345.587 634.774 345.269 639.588 345.502 659.022L336.336 659.119C336.505 652.537 336.984 645.732 336.058 639.193C334.036 624.906 322.286 610.361 316.039 597.149Z"/>
	<path fill="#0341A1" transform="scale(1.4296 1.4296)" d="M454.374 597.049L500.034 596.988C499.874 599.694 499.752 602.33 499.885 605.041L481.663 604.995C481.469 617.327 481.433 629.661 481.553 641.994L481.548 659.603C478.379 659.531 475.2 659.568 472.029 659.553L472.093 604.852C466.319 605.019 459.724 605.715 454.035 604.83C452.789 602.815 453.908 599.286 454.374 597.049Z"/>
	<path fill="#0341A1" transform="scale(1.4296 1.4296)" d="M423.379 597.051L432.873 597.031C432.205 615.149 432.633 633.389 432.649 651.522L460.037 651.473L460.041 659.099C448.172 658.872 435.352 657.842 423.603 659.594C423.737 638.746 423.662 617.897 423.379 597.051Z"/>
	<path fill="#0341A1" transform="scale(1.4296 1.4296)" d="M776.091 596.992L786.097 596.936C785.867 617.582 785.526 638.476 786.194 659.106C783.147 659.009 780.073 659.116 777.024 659.144C777.054 644.115 777.273 629.048 776.902 614.023C776.766 608.481 777.004 602.433 776.091 596.992Z"/>
</svg>
