<?xml version="1.0" encoding="utf-8" ?>
<svg xmlns="http://www.w3.org/2000/svg" xmlns:xlink="http://www.w3.org/1999/xlink" width="1464" height="1464">
	<path fill="#FAF9F2" transform="scale(1.4296 1.4296)" d="M0 0L1024 0L1024 1024L0 1024L0 0ZM377.79 215.38C366.164 217.48 358.366 228.51 360.264 240.171C362.161 251.831 373.054 259.82 384.746 258.126C392.493 257.004 399.031 251.789 401.847 244.485C404.664 237.182 403.321 228.928 398.334 222.895C393.347 216.861 385.493 213.988 377.79 215.38ZM509.245 215.09C497.525 217.29 489.814 228.582 492.031 240.299C494.249 252.016 505.553 259.71 517.266 257.475C528.955 255.244 536.629 243.969 534.416 232.278C532.203 220.586 520.94 212.895 509.245 215.09ZM642.96 215.217C630.814 215.934 621.566 226.391 622.339 238.534C623.112 250.677 633.611 259.877 645.751 259.048C657.811 258.224 666.938 247.808 666.17 235.744C665.402 223.679 655.028 214.505 642.96 215.217ZM401.867 261.975C397.422 264.913 393.396 267.345 388.341 269.05C393.295 277.702 397.855 286.563 402.685 295.282C410.486 309.363 418.587 323.603 425.636 338.067C483.714 337.858 541.793 337.989 599.869 338.458C604.252 328.298 610.04 319.049 615.491 309.452C622.757 296.369 630.119 283.338 637.577 270.363L637.687 269.702C635.946 268.473 633.694 267.92 631.774 266.975C628.706 265.466 625.91 263.661 623.125 261.689C616.125 276.627 605.629 290.786 589.512 296.633C579.331 300.327 568.509 299.488 558.787 294.88C545.464 288.565 535.828 275.744 530.963 262.041C524.437 266.801 517.391 268.84 509.357 267.597C504.386 266.828 500.157 264.743 495.838 262.266C490.245 276.79 481.794 288.788 467.144 295.267C456.652 299.908 446.466 300.292 435.76 296.032C424.069 291.381 415.392 283.64 408.663 273.114C406.333 269.471 404.354 265.498 401.867 261.975ZM508.215 350.715C501.607 351.123 494.982 351.748 488.374 352.06C489.201 362.14 493.24 380.339 486.243 388.309C481.862 393.298 473.411 395.786 466.896 396.051C462.945 396.211 458.973 395.284 456.03 392.506C449.95 386.766 447.524 375.571 443.477 368.206L443.306 367.889C426.142 375.157 410.16 385.937 395.407 397.207C399.672 403.25 409.684 415.291 412.061 421.463C412.98 423.849 413.3 426.433 412.829 428.954C411.536 435.877 404.222 442.78 398.478 446.476C395.525 448.377 392.109 449.609 388.604 448.666C379.309 446.165 371.597 437.67 363.195 433.034C352.878 448.167 345.312 464.401 338.617 481.388C345.633 485.274 359.095 490.148 364.467 495.188C366.096 496.701 367.277 498.635 367.88 500.776C369.694 506.986 367.798 517.288 364.48 522.831C362.211 526.621 358.699 529.133 354.385 530.08C347.229 531.652 339.041 530.5 331.707 530.81C330.866 535.184 330.052 539.563 329.263 543.947L395.511 543.884C406.338 543.858 417.381 543.26 428.182 543.814C425.207 517.026 429.233 496.336 446.495 474.751C460.627 457.08 482.861 445.364 505.266 442.9C511.403 442.225 518.988 441.711 525.119 442.824C548.568 444.674 569.662 456.425 584.753 474.231C598.38 490.31 607.186 512.456 605.258 533.725C604.956 537.057 604.411 540.33 603.767 543.611C625.998 543.925 648.232 544.026 670.465 543.914C681.122 543.908 691.917 543.534 702.557 543.961C702.609 539.325 702.758 534.669 702.678 530.034C695.538 530.025 680.727 531.208 674.425 529.423C671.988 528.731 669.777 527.407 668.017 525.585C663.262 520.581 662.702 512.486 663.086 505.91C663.33 501.725 664.354 497.624 667.69 494.832C674.462 489.163 684.047 486.683 691.612 482.009C691.713 481.946 691.816 481.888 691.918 481.828C687.605 465.589 678.157 447.763 668.152 434.268C667.978 434.342 667.803 434.413 667.629 434.49C658.32 438.604 646.665 453.14 635.873 449.108C629.144 446.594 621.659 438.54 618.759 432.012C617.264 428.647 616.876 425.321 618.317 421.876C621.185 415.015 630.426 403.682 635.695 398.284C621.35 386.885 606.999 376.064 589.771 369.317C585.091 377.997 579.59 393.026 569.459 396.011C562.897 397.945 554.099 394.705 548.388 391.324C544.962 389.296 542.436 386.428 541.443 382.525C539.344 374.273 543.515 361.636 545.237 353.283C533.033 351.444 520.579 349.902 508.215 350.715ZM279.541 598.112C271.435 599.811 264.597 603.083 259.881 610.286C254.751 618.121 253.336 627.949 255.36 637.026C257.111 644.873 261.393 652.058 268.409 656.269C275.102 660.285 282.449 660.952 290.028 659.953C298.142 658.112 304.496 654.056 308.928 646.913C313.79 639.078 314.704 630.099 312.605 621.222C310.717 613.237 306.357 606.024 299.242 601.662C293.179 597.945 286.456 597.291 279.541 598.112ZM315.963 598.038C320.079 606.929 335.011 630.959 336.304 638.303C337.486 645.024 336.658 652.777 336.536 659.597L344.639 659.651C344.321 635.848 343.481 638.299 355.675 617.731L365.968 598.56L357.481 598.451C351.746 609.026 346.199 619.616 340.999 630.466C335.518 619.957 330.407 608.526 324.022 598.579C321.316 598.267 318.689 598.065 315.963 598.038ZM582.064 598.227L575.48 598.457L575.367 659.839L583.46 659.785L583.324 633.966L592.646 634.044C596.118 640.742 600.51 647.09 604.623 653.414L608.972 659.353L618.564 659.592C612.789 651.157 605.636 642.318 601.391 633.041C606.732 630.113 610.779 627.1 612.693 620.974C614.088 616.508 613.8 611.252 611.415 607.165C608.86 602.788 604.263 600.307 599.467 599.129C593.845 597.749 587.808 598.119 582.064 598.227ZM737.384 598.118C733.473 607.016 730.378 616.326 726.838 625.381C722.415 636.696 717.558 647.953 713.772 659.501L722.07 659.543C723.797 654.264 725.893 649.14 727.96 643.988C733.437 643.763 738.892 643.576 744.375 643.597L754.268 643.601C756.308 648.879 758.434 654.14 760.301 659.482L768.552 659.741C760.856 639.439 754.166 617.715 745.242 598.03L737.384 598.118ZM206.774 598.552C206.162 618.85 206.683 639.185 206.619 659.49L214.446 659.515L214.485 633.901L222.862 633.908C228.611 642.22 234.209 650.705 240.296 658.773C242.358 660.289 248.183 659.622 250.769 659.575C243.629 650.957 236.439 642.006 230.137 632.758C235.139 631.497 238.746 629.625 241.575 625.066C244.102 621.007 244.897 616.105 243.785 611.455C242.786 607.272 240.24 603.868 236.486 601.754C228.091 597.028 216.052 598.514 206.774 598.552ZM384.625 598.617C379.48 610.726 375.205 623.293 370.699 635.654C367.788 643.638 364.278 651.781 361.991 659.951C365.019 659.865 368.051 659.74 371.08 659.709C372.347 654.598 373.858 649.36 375.793 644.455L392.08 644.431C395.193 644.353 398.366 644.386 401.466 644.116C403.012 649.306 404.635 654.489 406.743 659.484L415.171 659.506C407.383 639.314 399.214 619.023 392.552 598.436L384.625 598.617ZM423.547 598.594L423.504 659.54C434.494 659.578 445.528 659.799 456.514 659.589L456.497 653.26C448.119 652.921 439.712 653.018 431.328 652.997C431.112 634.849 431.007 616.699 431.014 598.55L423.547 598.594ZM452.89 598.585L452.725 605.034C458.798 605.072 465.028 604.857 471.076 605.327L471.174 659.474L479.112 659.501L479.009 641.75L479.008 605.372C484.979 605.287 491.013 605.037 496.979 605.229L497.334 598.491C482.523 598.526 467.699 598.703 452.89 598.585ZM501.202 598.544C504.666 606.093 508.218 613.601 511.858 621.067C514.545 626.566 518.718 632.855 519.995 638.857C521.369 645.316 520.44 652.869 520.493 659.466L528.506 659.424C528.278 636.669 528.089 637.273 539.052 616.955C541.389 612.68 547.292 603.986 547.386 599.309C546.321 598.49 544.31 598.324 542.971 598.465C541.829 598.585 541.314 598.772 540.569 599.671C536.498 604.584 527.573 624.518 524.874 631.45C518.84 620.758 514.517 609.432 509.226 598.395L501.202 598.544ZM628.911 598.545L628.555 659.596L664.517 659.498L664.462 652.826L636.154 652.623L636.292 634.875C636.332 633.408 636.145 632.563 636.976 631.328C644.617 630.213 653.359 631.048 661.105 631.071L661.09 624.89L636.438 624.829L636.551 605.075C645.811 605.073 655.096 605.211 664.35 604.892L664.461 598.447C652.611 598.391 640.761 598.424 628.911 598.545ZM676.072 598.434L676.165 659.428C678.692 659.371 681.254 659.402 683.772 659.202C683.91 651.812 683.897 644.42 683.731 637.03L693.536 636.941C700.182 636.319 706.394 635.256 711.035 629.904C714.495 625.914 715.828 620.328 715.39 615.138C715.013 610.668 713.188 606.614 709.73 603.691C701.176 596.462 686.529 598.335 676.072 598.434ZM776.97 598.563L777.081 659.798C779.86 659.796 782.65 659.84 785.427 659.766C785.508 639.367 785.4 618.967 785.103 598.569L776.97 598.563ZM801.307 598.737C801.076 598.98 800.772 599.171 800.613 599.466C799.629 601.297 800.539 652.715 800.412 659.639C803.256 659.719 806.115 659.745 808.954 659.916L808.799 633.022C811.567 633.128 814.388 633.136 817.143 633.392C822.515 641.077 827.173 649.2 832.599 656.875C834.052 658.668 834.646 659.302 837.039 659.53C839.52 659.767 842.014 659.565 844.499 659.692C837.659 650.941 831.621 641.589 825.016 632.665C830.103 631.326 834.556 628.322 837.207 623.694C839.483 619.723 839.951 614.802 838.637 610.43C837.48 606.581 834.784 603.629 831.255 601.769C822.795 597.309 810.621 598.455 801.307 598.737Z"/>
	<path fill="#017DFD" transform="scale(1.4296 1.4296)" d="M384.746 258.126C373.054 259.82 362.161 251.831 360.264 240.171C358.366 228.51 366.164 217.48 377.79 215.38C385.493 213.988 393.347 216.861 398.334 222.895C403.321 228.928 404.664 237.182 401.847 244.485C399.031 251.789 392.493 257.004 384.746 258.126Z"/>
	<path fill="#017DFD" transform="scale(1.4296 1.4296)" d="M517.266 257.475C505.553 259.71 494.249 252.016 492.031 240.299C489.814 228.582 497.525 217.29 509.245 215.09C520.94 212.895 532.203 220.586 534.416 232.278C536.629 243.969 528.955 255.244 517.266 257.475Z"/>
	<path fill="#017DFD" transform="scale(1.4296 1.4296)" d="M645.751 259.048C633.611 259.877 623.112 250.677 622.339 238.534C621.566 226.391 630.814 215.934 642.96 215.217C655.028 214.505 665.402 223.679 666.17 235.744C666.938 247.808 657.811 258.224 645.751 259.048Z"/>
	<path fill="#017DFD" transform="scale(1.4296 1.4296)" d="M388.341 269.05C393.396 267.345 397.422 264.913 401.867 261.975C404.354 265.498 406.333 269.471 408.663 273.114C415.392 283.64 424.069 291.381 435.76 296.032C446.466 300.292 456.652 299.908 467.144 295.267C481.794 288.788 490.245 276.79 495.838 262.266C500.157 264.743 504.386 266.828 509.357 267.597C517.391 268.84 524.437 266.801 530.963 262.041C535.828 275.744 545.464 288.565 558.787 294.88C568.509 299.488 579.331 300.327 589.512 296.633C605.629 290.786 616.125 276.627 623.125 261.689C625.91 263.661 628.706 265.466 631.774 266.975C633.694 267.92 635.946 268.473 637.687 269.702L637.577 270.363C630.119 283.338 622.757 296.369 615.491 309.452C610.04 319.049 604.252 328.298 599.869 338.458C541.793 337.989 483.714 337.858 425.636 338.067C418.587 323.603 410.486 309.363 402.685 295.282C397.855 286.563 393.295 277.702 388.341 269.05Z"/>
	<path fill="#017DFD" transform="scale(1.4296 1.4296)" d="M488.374 352.06C494.982 351.748 501.607 351.123 508.215 350.715C520.579 349.902 533.033 351.444 545.237 353.283C543.515 361.636 539.344 374.273 541.443 382.525C542.436 386.428 544.962 389.296 548.388 391.324C554.099 394.705 562.897 397.945 569.459 396.011C579.59 393.026 585.091 377.997 589.771 369.317C606.999 376.064 621.35 386.885 635.695 398.284C630.426 403.682 621.185 415.015 618.317 421.876C616.876 425.321 617.264 428.647 618.759 432.012C621.659 438.54 629.144 446.594 635.873 449.108C646.665 453.14 658.32 438.604 667.629 434.49C667.803 434.413 667.978 434.342 668.152 434.268C678.157 447.763 687.605 465.589 691.918 481.828C691.816 481.888 691.713 481.946 691.612 482.009C684.047 486.683 674.462 489.163 667.69 494.832C664.354 497.624 663.33 501.725 663.086 505.91C662.702 512.486 663.262 520.581 668.017 525.585C669.777 527.407 671.988 528.731 674.425 529.423C680.727 531.208 695.538 530.025 702.678 530.034C702.758 534.669 702.609 539.325 702.557 543.961C691.917 543.534 681.122 543.908 670.465 543.914C648.232 544.026 625.998 543.925 603.767 543.611C604.411 540.33 604.956 537.057 605.258 533.725C607.186 512.456 598.38 490.31 584.753 474.231C569.662 456.425 548.568 444.674 525.119 442.824C518.988 441.711 511.403 442.225 505.266 442.9C482.861 445.364 460.627 457.08 446.495 474.751C429.233 496.336 425.207 517.026 428.182 543.814C417.381 543.26 406.338 543.858 395.511 543.884L329.263 543.947C330.052 539.563 330.866 535.184 331.707 530.81C339.041 530.5 347.229 531.652 354.385 530.08C358.699 529.133 362.211 526.621 364.48 522.831C367.798 517.288 369.694 506.986 367.88 500.776C367.277 498.635 366.096 496.701 364.467 495.188C359.095 490.148 345.633 485.274 338.617 481.388C345.312 464.401 352.878 448.167 363.195 433.034C371.597 437.67 379.309 446.165 388.604 448.666C392.109 449.609 395.525 448.377 398.478 446.476C404.222 442.78 411.536 435.877 412.829 428.954C413.3 426.433 412.98 423.849 412.061 421.463C409.684 415.291 399.672 403.25 395.407 397.207C410.16 385.937 426.142 375.157 443.306 367.889L443.477 368.206C447.524 375.571 449.95 386.766 456.03 392.506C458.973 395.284 462.945 396.211 466.896 396.051C473.411 395.786 481.862 393.298 486.243 388.309C493.24 380.339 489.201 362.14 488.374 352.06Z"/>
	<path fill="#017DFD" transform="scale(1.4296 1.4296)" d="M290.028 659.953C282.449 660.952 275.102 660.285 268.409 656.269C261.393 652.058 257.111 644.873 255.36 637.026C253.336 627.949 254.751 618.121 259.881 610.286C264.597 603.083 271.435 599.811 279.541 598.112C286.456 597.291 293.179 597.945 299.242 601.662C306.357 606.024 310.717 613.237 312.605 621.222C314.704 630.099 313.79 639.078 308.928 646.913C304.496 654.056 298.142 658.112 290.028 659.953ZM280.639 604.597C274.611 605.895 269.907 608.308 266.492 613.685C262.283 620.31 261.425 629.829 263.348 637.371C264.829 643.18 268.111 648.206 273.323 651.313C277.94 654.066 282.227 654.187 287.397 653.917C293.711 652.48 298.682 649.808 302.13 644.083C305.984 637.684 306.746 628.608 304.738 621.417C303.069 615.441 299.279 609.873 293.774 606.844C289.584 604.538 285.298 604.245 280.639 604.597Z"/>
	<path fill="#017DFD" transform="scale(1.4296 1.4296)" d="M336.536 659.597C336.658 652.777 337.486 645.024 336.304 638.303C335.011 630.959 320.079 606.929 315.963 598.038C318.689 598.065 321.316 598.267 324.022 598.579C330.407 608.526 335.518 619.957 340.999 630.466C346.199 619.616 351.746 609.026 357.481 598.451L365.968 598.56L355.675 617.731C343.481 638.299 344.321 635.848 344.639 659.651L336.536 659.597Z"/>
	<path fill="#017DFD" transform="scale(1.4296 1.4296)" d="M575.48 598.457L582.064 598.227C587.808 598.119 593.845 597.749 599.467 599.129C604.263 600.307 608.86 602.788 611.415 607.165C613.8 611.252 614.088 616.508 612.693 620.974C610.779 627.1 606.732 630.113 601.391 633.041C605.636 642.318 612.789 651.157 618.564 659.592L608.972 659.353L604.623 653.414C600.51 647.09 596.118 640.742 592.646 634.044L583.324 633.966L583.46 659.785L575.367 659.839L575.48 598.457ZM583.01 604.529L583.138 628.397C589.87 628.464 596.252 629.266 602.011 625.092C604.598 622.079 606.054 619.077 605.686 615.02C605.431 612.21 604.294 609.604 602.083 607.793C597.083 603.695 589.058 604.44 583.01 604.529Z"/>
	<path fill="#017DFD" transform="scale(1.4296 1.4296)" d="M713.772 659.501C717.558 647.953 722.415 636.696 726.838 625.381C730.378 616.326 733.473 607.016 737.384 598.118L745.242 598.03C754.166 617.715 760.856 639.439 768.552 659.741L760.301 659.482C758.434 654.14 756.308 648.879 754.268 643.601L744.375 643.597C738.892 643.576 733.437 643.763 727.96 643.988C725.893 649.14 723.797 654.264 722.07 659.543L713.772 659.501ZM741.224 606.383C737.636 616.946 733.844 627.438 729.851 637.854L741.787 637.869L752.616 637.794C750.716 632.441 743.255 609.09 741.224 606.383Z"/>
	<path fill="#017DFD" transform="scale(1.4296 1.4296)" d="M206.619 659.49C206.683 639.185 206.162 618.85 206.774 598.552C216.052 598.514 228.091 597.028 236.486 601.754C240.24 603.868 242.786 607.272 243.785 611.455C244.897 616.105 244.102 621.007 241.575 625.066C238.746 629.625 235.139 631.497 230.137 632.758C236.439 642.006 243.629 650.957 250.769 659.575C248.183 659.622 242.358 660.289 240.296 658.773C234.209 650.705 228.611 642.22 222.862 633.908L214.485 633.901L214.446 659.515L206.619 659.49ZM214.292 604.99L214.296 627.984C220.747 628.009 227.463 628.821 232.95 624.81C235.027 621.856 236.915 617.508 236.178 613.801C235.655 611.172 233.948 609.075 231.736 607.635C226.623 604.307 220.105 604.903 214.292 604.99Z"/>
	<path fill="#017DFD" transform="scale(1.4296 1.4296)" d="M361.991 659.951C364.278 651.781 367.788 643.638 370.699 635.654C375.205 623.293 379.48 610.726 384.625 598.617L392.552 598.436C399.214 619.023 407.383 639.314 415.171 659.506L406.743 659.484C404.635 654.489 403.012 649.306 401.466 644.116C398.366 644.386 395.193 644.353 392.08 644.431L375.793 644.455C373.858 649.36 372.347 654.598 371.08 659.709C368.051 659.74 365.019 659.865 361.991 659.951ZM388.594 606.817C384.711 616.995 381.793 627.518 377.947 637.695C381.997 637.799 386.048 637.855 390.1 637.862L399.604 637.663C397.294 631.651 395.092 625.598 392.998 619.508C391.608 615.395 390.53 610.644 388.594 606.817Z"/>
	<path fill="#017DFD" transform="scale(1.4296 1.4296)" d="M423.504 659.54L423.547 598.594L431.014 598.55C431.007 616.699 431.112 634.849 431.328 652.997C439.712 653.018 448.119 652.921 456.497 653.26L456.514 659.589C445.528 659.799 434.494 659.578 423.504 659.54Z"/>
	<path fill="#017DFD" transform="scale(1.4296 1.4296)" d="M452.725 605.034L452.89 598.585C467.699 598.703 482.523 598.526 497.334 598.491L496.979 605.229C491.013 605.037 484.979 605.287 479.008 605.372L479.009 641.75L479.112 659.501L471.174 659.474L471.076 605.327C465.028 604.857 458.798 605.072 452.725 605.034Z"/>
	<path fill="#017DFD" transform="scale(1.4296 1.4296)" d="M520.493 659.466C520.44 652.869 521.369 645.316 519.995 638.857C518.718 632.855 514.545 626.566 511.858 621.067C508.218 613.601 504.666 606.093 501.202 598.544L509.226 598.395C514.517 609.432 518.84 620.758 524.874 631.45C527.573 624.518 536.498 604.584 540.569 599.671C541.314 598.772 541.829 598.585 542.971 598.465C544.31 598.324 546.321 598.49 547.386 599.309C547.292 603.986 541.389 612.68 539.052 616.955C528.089 637.273 528.278 636.669 528.506 659.424L520.493 659.466Z"/>
	<path fill="#017DFD" transform="scale(1.4296 1.4296)" d="M628.555 659.596L628.911 598.545C640.761 598.424 652.611 598.391 664.461 598.447L664.35 604.892C655.096 605.211 645.811 605.073 636.551 605.075L636.438 624.829L661.09 624.89L661.105 631.071C653.359 631.048 644.617 630.213 636.976 631.328C636.145 632.563 636.332 633.408 636.292 634.875L636.154 652.623L664.462 652.826L664.517 659.498L628.555 659.596Z"/>
	<path fill="#017DFD" transform="scale(1.4296 1.4296)" d="M676.165 659.428L676.072 598.434C686.529 598.335 701.176 596.462 709.73 603.691C713.188 606.614 715.013 610.668 715.39 615.138C715.828 620.328 714.495 625.914 711.035 629.904C706.394 635.256 700.182 636.319 693.536 636.941L683.731 637.03C683.897 644.42 683.91 651.812 683.772 659.202C681.254 659.402 678.692 659.371 676.165 659.428ZM689.879 604.732L684.332 604.955C684.384 613.346 684.336 621.737 684.189 630.127C689.611 630.334 695.634 630.814 700.792 628.821C703.983 626.732 706.68 623.725 707.563 619.903C708.307 616.686 707.562 613.348 705.671 610.66C703.74 607.917 700.281 605.594 696.935 605.06C694.665 604.698 692.181 604.753 689.879 604.732Z"/>
	<path fill="#017DFD" transform="scale(1.4296 1.4296)" d="M777.081 659.798L776.97 598.563L785.103 598.569C785.4 618.967 785.508 639.367 785.427 659.766C782.65 659.84 779.86 659.796 777.081 659.798Z"/>
	<path fill="#017DFD" transform="scale(1.4296 1.4296)" d="M800.412 659.639C800.539 652.715 799.629 601.297 800.613 599.466C800.772 599.171 801.076 598.98 801.307 598.737C810.621 598.455 822.795 597.309 831.255 601.769C834.784 603.629 837.48 606.581 838.637 610.43C839.951 614.802 839.483 619.723 837.207 623.694C834.556 628.322 830.103 631.326 825.016 632.665C831.621 641.589 837.659 650.941 844.499 659.692C842.014 659.565 839.52 659.767 837.039 659.53C834.646 659.302 834.052 658.668 832.599 656.875C827.173 649.2 822.515 641.077 817.143 633.392C814.388 633.136 811.567 633.128 808.799 633.022L808.954 659.916C806.115 659.745 803.256 659.719 800.412 659.639ZM808.443 604.899L808.506 627.473C815.618 627.61 822.194 628.14 828.402 623.9C830.569 621.326 831.942 618.677 831.536 615.213C831.193 612.28 829.663 609.219 827.242 607.466C822.384 603.95 814.207 604.861 808.443 604.899Z"/>
	<path fill="#FAF9F2" transform="scale(1.4296 1.4296)" d="M287.397 653.917C282.227 654.187 277.94 654.066 273.323 651.313C268.111 648.206 264.829 643.18 263.348 637.371C261.425 629.829 262.283 620.31 266.492 613.685C269.907 608.308 274.611 605.895 280.639 604.597C285.298 604.245 289.584 604.538 293.774 606.844C299.279 609.873 303.069 615.441 304.738 621.417C306.746 628.608 305.984 637.684 302.13 644.083C298.682 649.808 293.711 652.48 287.397 653.917Z"/>
	<path fill="#FAF9F2" transform="scale(1.4296 1.4296)" d="M583.138 628.397L583.01 604.529C589.058 604.44 597.083 603.695 602.083 607.793C604.294 609.604 605.431 612.21 605.686 615.02C606.054 619.077 604.598 622.079 602.011 625.092C596.252 629.266 589.87 628.464 583.138 628.397Z"/>
	<path fill="#FAF9F2" transform="scale(1.4296 1.4296)" d="M684.332 604.955L689.879 604.732C692.181 604.753 694.665 604.698 696.935 605.06C700.281 605.594 703.74 607.917 705.671 610.66C707.562 613.348 708.307 616.686 707.563 619.903C706.68 623.725 703.983 626.732 700.792 628.821C695.634 630.814 689.611 630.334 684.189 630.127C684.336 621.737 684.384 613.346 684.332 604.955Z"/>
	<path fill="#FAF9F2" transform="scale(1.4296 1.4296)" d="M214.296 627.984L214.292 604.99C220.105 604.903 226.623 604.307 231.736 607.635C233.948 609.075 235.655 611.172 236.178 613.801C236.915 617.508 235.027 621.856 232.95 624.81C227.463 628.821 220.747 628.009 214.296 627.984Z"/>
	<path fill="#FAF9F2" transform="scale(1.4296 1.4296)" d="M808.506 627.473L808.443 604.899C814.207 604.861 822.384 603.95 827.242 607.466C829.663 609.219 831.193 612.28 831.536 615.213C831.942 618.677 830.569 621.326 828.402 623.9C822.194 628.14 815.618 627.61 808.506 627.473Z"/>
	<path fill="#FAF9F2" transform="scale(1.4296 1.4296)" d="M729.851 637.854C733.844 627.438 737.636 616.946 741.224 606.383C743.255 609.09 750.716 632.441 752.616 637.794L741.787 637.869L729.851 637.854Z"/>
	<path fill="#FAF9F2" transform="scale(1.4296 1.4296)" d="M377.947 637.695C381.793 627.518 384.711 616.995 388.594 606.817C390.53 610.644 391.608 615.395 392.998 619.508C395.092 625.598 397.294 631.651 399.604 637.663L390.1 637.862C386.048 637.855 381.997 637.799 377.947 637.695Z"/>
</svg>
