<?xml version="1.0" encoding="UTF-8"?>
<svg width="24" height="24" viewBox="0 0 24 24" fill="none" xmlns="http://www.w3.org/2000/svg">
  <path d="M6 15H18V17C18 17.5523 17.5523 18 17 18H7C6.44772 18 6 17.5523 6 17V15Z" stroke="currentColor" stroke-width="1.5" stroke-linecap="round" stroke-linejoin="round"/>
  <path d="M16 15V12" stroke="currentColor" stroke-width="1.5" stroke-linecap="round"/>
  <path d="M8 15V12" stroke="currentColor" stroke-width="1.5" stroke-linecap="round"/>
  <path d="M12 15V13" stroke="currentColor" stroke-width="1.5" stroke-linecap="round"/>
  <path d="M12 9V11" stroke="currentColor" stroke-width="1.5" stroke-linecap="round"/>
  <path d="M10 8H14C15.1046 8 16 8.89543 16 10V11H8V10C8 8.89543 8.89543 8 10 8Z" stroke="currentColor" stroke-width="1.5" stroke-linecap="round" stroke-linejoin="round"/>
  <path d="M14 6H10V8H14V6Z" stroke="currentColor" stroke-width="1.5" stroke-linecap="round" stroke-linejoin="round"/>
  <path d="M6 13V11" stroke="currentColor" stroke-width="1.5" stroke-linecap="round"/>
  <path d="M18 13V11" stroke="currentColor" stroke-width="1.5" stroke-linecap="round"/>
</svg>
