<?xml version="1.0" encoding="UTF-8"?>
<svg width="24" height="24" viewBox="0 0 24 24" fill="none" xmlns="http://www.w3.org/2000/svg">
  <path d="M12 3V5" stroke="currentColor" stroke-width="1.5" stroke-linecap="round"/>
  <path d="M12 7V9" stroke="currentColor" stroke-width="1.5" stroke-linecap="round"/>
  <path d="M12 13V15" stroke="currentColor" stroke-width="1.5" stroke-linecap="round"/>
  <path d="M12 17V19" stroke="currentColor" stroke-width="1.5" stroke-linecap="round"/>
  <path d="M12 21V23" stroke="currentColor" stroke-width="1.5" stroke-linecap="round"/>
  <path d="M8 5H16" stroke="currentColor" stroke-width="1.5" stroke-linecap="round"/>
  <path d="M10 3L14 3" stroke="currentColor" stroke-width="1.5" stroke-linecap="round"/>
  <path d="M6 7L18 7" stroke="currentColor" stroke-width="1.5" stroke-linecap="round"/>
  <path d="M4 11L20 11" stroke="currentColor" stroke-width="1.5" stroke-linecap="round"/>
  <path d="M6 15L18 15" stroke="currentColor" stroke-width="1.5" stroke-linecap="round"/>
  <path d="M8 19H16" stroke="currentColor" stroke-width="1.5" stroke-linecap="round"/>
  <path d="M10 21L14 21" stroke="currentColor" stroke-width="1.5" stroke-linecap="round"/>
  <path d="M15 3L17 5" stroke="currentColor" stroke-width="1.5" stroke-linecap="round"/>
  <path d="M17 9L19 7" stroke="currentColor" stroke-width="1.5" stroke-linecap="round"/>
  <path d="M19 13L21 11" stroke="currentColor" stroke-width="1.5" stroke-linecap="round"/>
  <path d="M17 17L19 15" stroke="currentColor" stroke-width="1.5" stroke-linecap="round"/>
  <path d="M15 21L17 19" stroke="currentColor" stroke-width="1.5" stroke-linecap="round"/>
</svg>
